<svg width="32" height="32" viewBox="0 0 32 32" fill="none" xmlns="http://www.w3.org/2000/svg">
<path d="M4.01416 14.976C4.57995 14.9849 5.13215 14.8024 5.58116 14.458C5.99636 14.1103 6.28037 13.6312 6.38616 13.1C6.55245 12.1279 6.62412 11.1419 6.60016 10.156C6.60816 8.766 6.63316 7.85034 6.67516 7.409C6.71965 6.82765 6.86093 6.25781 7.09316 5.723C7.27012 5.33416 7.52743 4.98722 7.84816 4.705C8.18636 4.43166 8.57916 4.23389 9.00016 4.125C9.50834 4.02433 10.0264 3.98239 10.5442 4H11.2442V5.96H10.8572C10.2435 5.88193 9.62397 6.05022 9.13416 6.428C8.77158 7.06163 8.62256 7.79513 8.70916 8.52C8.7426 9.89916 8.69686 11.2791 8.57216 12.653C8.48136 13.3904 8.21827 14.0961 7.80416 14.713C7.34584 15.2706 6.76188 15.7117 6.10016 16C6.95298 16.3269 7.65992 16.9494 8.09216 17.754C8.58368 18.9802 8.79484 20.3007 8.71016 21.619C8.71016 23.2423 8.72683 24.209 8.76016 24.519C8.77294 24.9622 8.95301 25.3841 9.26416 25.7C9.74608 25.9772 10.3032 26.0952 10.8562 26.037H11.2432V28H10.5432C9.9453 28.0276 9.34685 27.9601 8.77016 27.8C8.25126 27.6185 7.79292 27.2966 7.44616 26.87C7.07754 26.3973 6.84238 25.8344 6.76516 25.24C6.63794 24.1669 6.58282 23.0865 6.60016 22.006C6.62707 20.9662 6.55541 19.9263 6.38616 18.9C6.27868 18.3687 5.99504 17.8891 5.58116 17.539C5.13373 17.191 4.58092 17.0061 4.01416 17.015V14.976Z" fill="white"/>
<path d="M27.9859 17.0109C27.4191 17.002 26.8663 17.1869 26.4189 17.5349C26.005 17.885 25.7214 18.3645 25.6139 18.8959C25.4451 19.9232 25.3741 20.9642 25.4019 22.0049C25.4179 23.0855 25.3614 24.1659 25.2329 25.2389C25.1557 25.8333 24.9205 26.3962 24.5519 26.8689C24.2051 27.2954 23.7468 27.6174 23.2279 27.7989C22.6512 27.959 22.0527 28.0265 21.4549 27.9989H20.7549V26.0399H21.1419C21.6948 26.0981 22.252 25.9801 22.7339 25.7029C23.0469 25.3861 23.2278 24.9621 23.2399 24.5169C23.2732 24.2089 23.2899 23.2422 23.2899 21.6169C23.2052 20.2986 23.4164 18.9781 23.9079 17.7519C24.3405 16.9481 25.0474 16.3263 25.8999 15.9999C25.2397 15.7113 24.6572 15.2706 24.1999 14.7139C23.7858 14.097 23.5227 13.3913 23.4319 12.6539C23.3072 11.28 23.2614 9.90004 23.2949 8.52089C23.3815 7.79601 23.2325 7.06251 22.8699 6.42889C22.3801 6.0511 21.7605 5.88282 21.1469 5.96089H20.7599V3.99989H21.4599C21.9763 3.98258 22.493 4.02452 22.9999 4.12489C23.4199 4.23447 23.8117 4.43256 24.1489 4.70589C24.4696 4.9881 24.7269 5.33505 24.9039 5.72389C25.1361 6.2587 25.2774 6.82854 25.3219 7.40989C25.3632 7.85122 25.3882 8.76689 25.3969 10.1569C25.3721 11.1438 25.4431 12.1307 25.6089 13.1039C25.7153 13.634 25.9993 14.1119 26.4139 14.4589C26.8629 14.8033 27.4151 14.9858 27.9809 14.9769L27.9859 17.0109Z" fill="white"/>
</svg>
