<svg width="24" height="24" viewBox="0 0 24 24" fill="none" xmlns="http://www.w3.org/2000/svg">
<path d="M21.5576 3.11737C21.3768 2.96119 21.1567 2.85747 20.9211 2.81744C20.6855 2.77742 20.4435 2.80262 20.2213 2.89031L2.91905 9.68765C2.65515 9.79132 2.43191 9.97765 2.28274 10.2188C2.13358 10.4599 2.06651 10.7428 2.09156 11.0253C2.11662 11.3077 2.23246 11.5744 2.42174 11.7855C2.61103 11.9966 2.86358 12.1407 3.14161 12.1963L7.68717 13.1053V18.7484C7.6869 19.0081 7.76373 19.2621 7.90791 19.4781C8.05209 19.6941 8.25714 19.8625 8.49708 19.9618C8.73703 20.0612 9.00108 20.0872 9.25577 20.0363C9.51047 19.9855 9.74435 19.8603 9.9278 19.6764L12.4843 17.1199L16.3079 20.4847C16.5457 20.6959 16.8525 20.8127 17.1705 20.8131C17.3088 20.8129 17.4462 20.7911 17.5777 20.7485C17.7946 20.6797 17.9897 20.5552 18.1435 20.3874C18.2973 20.2197 18.4045 20.0146 18.4543 19.7925L21.9805 4.40503C22.0342 4.17223 22.0232 3.92918 21.9487 3.70219C21.8741 3.4752 21.7389 3.27293 21.5577 3.11728L21.5576 3.11737ZM3.2122 10.9258C3.20613 10.8851 3.21466 10.8437 3.23629 10.8087C3.25792 10.7737 3.29124 10.7476 3.33033 10.7348L17.808 5.04712L8.11927 12.0445L3.3622 11.0931C3.32145 11.0874 3.28402 11.0675 3.25655 11.0369C3.22909 11.0063 3.21337 10.9669 3.2122 10.9258ZM9.13224 18.8811C9.10601 18.9073 9.07261 18.9251 9.03624 18.9324C8.99988 18.9396 8.96218 18.9359 8.92793 18.9217C8.89367 18.9075 8.86439 18.8835 8.84379 18.8526C8.82318 18.8218 8.81218 18.7856 8.81217 18.7485V13.8885L11.6381 16.3753L9.13224 18.8811ZM17.3577 19.5412C17.3504 19.5729 17.3351 19.6022 17.3131 19.6261C17.2912 19.6501 17.2634 19.6679 17.2325 19.6779C17.2016 19.6879 17.1686 19.6897 17.1368 19.6831C17.105 19.6765 17.0754 19.6617 17.051 19.6402L9.15033 12.6877L20.8676 4.22522L17.3577 19.5412Z" fill="white"/>
</svg>
