<svg xmlns="http://www.w3.org/2000/svg" width="62" height="51" viewBox="0 0 62 51">
    <defs>
        <filter id="mfa4dv52qa">
            <feColorMatrix in="SourceGraphic" values="0 0 0 0 0.270588 0 0 0 0 0.909804 0 0 0 0 0.874510 0 0 0 1.000000 0"/>
        </filter>
    </defs>
    <g fill="none" fill-rule="evenodd">
        <g filter="url(#mfa4dv52qa)" transform="translate(-616 -1655)">
            <g fill="#64EEFF" fill-rule="nonzero">
                <g>
                    <path d="M25 41c4.963 0 9-4.022 9-8.967S29.963 23 25 23s-9 4.088-9 9.033C16 36.978 20.037 41 25 41zm0-16.813c4.301 0 7.875 3.494 7.875 7.846S29.368 39.879 25 39.879s-7.875-3.494-7.875-7.846 3.574-7.846 7.875-7.846z" transform="translate(616 1655)"/>
                    <path d="M22.318 35.937c.064.063.191.063.255.063.127 0 .19 0 .254-.063l5.918-3.415c.191-.127.255-.316.255-.506s-.127-.38-.255-.506l-5.918-3.415c-.19-.127-.382-.127-.572 0-.191.126-.255.316-.255.506v6.767c.064.316.19.506.318.569zm.891-6.261l4.2 2.403-4.2 2.403v-4.806z" transform="translate(616 1655)"/>
                    <path d="M48.203 2.083c-.134-.134-.268-.202-.402-.202L25.909 0c-.2 0-.469.134-.603.336s-.067.47.067.672l4.754 6.047-3.75 6.988c-.066.068-.066.202-.066.27H2.41C1.07 14.312 0 15.386 0 16.73v31.85C0 49.925 1.071 51 2.41 51h44.588c1.339 0 2.41-1.075 2.41-2.419V27.079c.2 0 .401-.134.468-.336l3.75-7.055 2.878.269V33.26c0 .336.268.605.603.605.334 0 .602-.27.602-.605V20.024l3.615.336h.067c.201 0 .402-.135.536-.336.134-.202.067-.47-.067-.672L48.203 2.083zm0 46.498c0 .672-.536 1.21-1.205 1.21H2.41c-.67 0-1.205-.538-1.205-1.21v-31.85c0-.672.536-1.21 1.205-1.21h24.637l1.74 2.218H5.357c-.335 0-.603.269-.603.605V46.9c0 .336.268.605.603.605h38.763c.335 0 .602-.269.602-.605V26.676l3.482.269V48.58zM29.792 19.016l5.222 6.652c.134.134.268.202.402.202l8.033.672v19.754H5.891v-27.28h23.9zm19.214 6.786L35.817 24.66l-8.234-10.415 3.347-6.249 8.034 10.213c.134.135.268.202.401.202l12.921 1.075-3.28 6.316zm-9.239-8.533L27.114 1.277l20.285 1.68 12.653 15.992-20.285-1.68z" transform="translate(616 1655)"/>
                </g>
            </g>
        </g>
    </g>
</svg>
