<svg xmlns="http://www.w3.org/2000/svg" width="56" height="56" viewBox="0 0 56 56">
    <g fill="none" fill-rule="evenodd">
        <g>
            <g>
                <g transform="translate(-1052 -6645) translate(948 6601) translate(105 45)">
                    <path fill="#0F0A4C" fill-rule="nonzero" d="M14.253 31.039c-.3-.493-.333-1.117-.1-1.643l.133-.296.967-2.136.466-1.084.234-.526.133-.263c.033-.066.066-.164.1-.23.166-.46.266-.92.3-1.413v-.591c.066-1.71.466-3.352 1.2-4.897 2.865-6.046 10.23-8.675 16.361-5.783 1.833.854 3.432 2.136 4.632 3.746 1.666 2.169 2.466 4.83 2.3 7.525-.067 1.216-.367 2.432-.867 3.549-.433 1.019-1.066 1.972-1.833 2.793-.2.197-.4.394-.633.559l-.133.098-.134.099-.266.23c-.333.263-.5.329-.333-.132.066-.164.166-.361.3-.492.066-.132.133-.296.233-.428.1-.131.166-.328.266-.493.067-.164.167-.295.267-.427 1.933-2.924 2.2-6.637.733-9.825-.1-.197-.167-.394-.3-.591-.1-.198-.2-.395-.333-.56-1.633-2.595-4.299-4.337-7.331-4.83-1.733-.262-3.5-.131-5.132.428l-.6.23-.6.263-.3.131c-.1.033-.2.099-.266.164l-.567.329c-.733.46-1.4 1.019-1.999 1.643-.6.624-1.133 1.314-1.566 2.07-.433.756-.767 1.545-1 2.399-.233.854-.366 1.709-.4 2.563 0 .526-.1 1.052-.233 1.544-.067.263-.167.493-.267.756s-.2.46-.333.657l-1.566 3.517-.1.23-.033.098v.164c.033.099.1.165.2.198l1.832.591c.3.099.5.362.5.657V36.066c.034.33.167.625.4.855.233.197.533.328.833.328h1.5l3.032-.032c.367 0 .7.23.8.591l.733 2.465.167.624.033.131v.033c0 .033.033.066.033.066.067.099.2.131.334.099 2.465-.69 4.998-1.38 7.53-2.07l3.766-1.02.467-.13.233-.066.1-.033c.1-.066.2-.165.233-.263v-.263l-.033-.132-.067-.23-.266-.985c-.334-1.15-.567-2.333-.734-3.55-.1-.854-.066-1.347.1-1.38.167-.032.5.493.9 1.315.467 1.051.867 2.103 1.2 3.187l.366 1.15.034.132c.033.099.033.164.066.263.167.986-.433 1.971-1.4 2.267l-.666.197-1.266.362-4.998 1.479-5.032 1.445c-.034 0-.167.033-.267.066s-.2.033-.3.033c-.2 0-.4 0-.6-.066-.6-.164-1.133-.558-1.4-1.117-.066-.164-.132-.329-.166-.493l-.166-.624-.5-1.643-3.666-.033c-.533 0-1.066-.132-1.566-.394-.966-.56-1.566-1.578-1.533-2.662v-1.085l.033-2.563-.733-.263-.3-.098-.133-.033c-.1-.033-.167-.066-.267-.099-.333-.197-.6-.46-.766-.788zm16.029-6.737c1.7-.887 2.466-2.924 1.7-4.666-.168-.821-.634-1.544-1.334-2.037-.366-.263-.766-.427-1.2-.559-.433-.098-.9-.131-1.332-.098-.9.098-1.733.493-2.366 1.117-.634.624-1.067 1.413-1.2 2.3 0 .197.1.362.267.493.233.132.466-.033.633-.263.5-.624 1.1-1.15 1.766-1.544.7-.427 1.6-.395 2.3.033.666.394 1.065 1.084 1.165 1.84 0 .197-.066.361-.1.558-.1.263-.266.526-.466.723-.1.099-.2.198-.333.263-.067.033-.134.066-.167.099l-.266.164c-.534.296-1 .756-1.267 1.315-.133.262-.233.558-.3.854-.033.131-.033.296-.033.46 0 .131 0 .263.033.394.067.493.3.888.767.855.433-.066.766-.428.766-.888-.033-.624.367-1.15.967-1.413zm-1.067 5.357c.6-.395.267-.822.4-1.216-.1-.066-.2-.066-.333-.099-.2-.033-.4 0-.633.033-.533.099-.767.23-.833.394-.167.33-.4.69-.234 1.02l-.033.163c-.1.263-.067.56.1.756.067.066.3.165.766.165.267.032.534 0 .767-.1.1-.13.167-.262.167-.426 0-.132-.034-.263-.067-.362l-.067-.328z"/>
                    <circle cx="27" cy="27" r="27" stroke="#45E8DF"/>
                </g>
            </g>
        </g>
    </g>
</svg>
