<svg xmlns="http://www.w3.org/2000/svg" width="45" height="56" viewBox="0 0 45 56">
    <defs>
        <filter id="19s3l6q3ia">
            <feColorMatrix in="SourceGraphic" values="0 0 0 0 0.270588 0 0 0 0 0.909804 0 0 0 0 0.874510 0 0 0 1.000000 0"/>
        </filter>
    </defs>
    <g fill="none" fill-rule="evenodd">
        <g filter="url(#19s3l6q3ia)" transform="translate(-1098 -1657)">
            <g fill="#64EEFF" fill-rule="nonzero" transform="translate(1098 1657)">
                <path d="M18.119 34.989C18.08 30.02 14.025 26 9.059 26 4.056 26 0 30.058 0 35.027c0 .417.341.758.758.758h3.715l.682 1.934c.152.38.569.607.948.455.379-.151.606-.568.455-.948L5.762 34.8c-.114-.303-.38-.493-.72-.493h-3.45c.38-3.793 3.601-6.751 7.505-6.751 4.17 0 7.543 3.375 7.543 7.51v.075l.758 6.486h-2.312c-.417 0-.758.341-.758.758v4.514c0 .796-.644 1.44-1.44 1.44h-2.502c-.417 0-.758.342-.758.76v6.143c0 .418.341.759.758.759s.758-.341.758-.759v-5.385h1.744c1.63 0 2.956-1.328 2.956-2.958v-3.755h2.388c.228 0 .417-.076.569-.266.151-.151.227-.379.19-.606l-.872-7.282z"/>
                <circle cx="13.5" cy="36.5" r="1.5"/>
                <path d="M35.903 26c-2.805 0-5.345 1.29-7.013 3.3-.037.038-.037.075-.075.075-1.213 1.518-1.971 3.452-1.971 5.576l-.834 7.32c-.038.227.038.417.19.606.15.152.34.266.568.266h2.388v3.755c0 1.63 1.326 2.958 2.956 2.958h1.744v5.385c0 .418.341.759.758.759s.758-.341.758-.759v-6.144c0-.417-.341-.758-.758-.758h-2.502c-.796 0-1.44-.645-1.44-1.441v-4.514c0-.417-.341-.758-.758-.758h-2.312l.758-6.486v-.076c0-1.592.493-3.072 1.364-4.285l5.951 2.048 1.706 4.93c.114.304.417.493.72.493.076 0 .152 0 .266-.038.379-.151.606-.569.455-.948l-1.82-5.272c-.076-.227-.265-.379-.455-.455l-5.686-1.934c1.327-1.214 3.147-1.972 5.08-1.972 4.17 0 7.543 3.375 7.543 7.51 0 .417.34.758.758.758.417 0 .758-.341.758-.759-.038-5.082-4.094-9.14-9.097-9.14z"/>
                <circle cx="31.5" cy="36.5" r="1.5"/>
                <path d="M28.812 27c.075 0 .112 0 .186-.038.335-.076.559-.379.559-.72v-6.134h4.541c2.643 0 5.137-1.06 6.998-2.954C42.958 15.261 44 12.724 44 10.035 44 4.506 39.533 0 34.098 0H9.902C7.259 0 4.765 1.06 2.904 2.954 1.042 4.847 0 7.384 0 10.073c0 5.529 4.467 10.035 9.902 10.035h4.541v6.135c0 .34.224.643.559.72.335.075.67-.077.856-.342l3.685-6.513h4.988l3.686 6.513c.074.228.335.379.595.379zm-.744-3.597l-2.494-4.431c-.15-.227-.373-.379-.633-.379h-5.845c-.26 0-.52.152-.632.379l-2.494 4.43v-4.051c0-.417-.335-.758-.745-.758H9.902c-4.653 0-8.45-3.824-8.45-8.558 0-2.272.893-4.43 2.457-6.021 1.6-1.628 3.722-2.5 5.956-2.5H34.06c4.653 0 8.413 3.825 8.413 8.521 0 2.272-.894 4.43-2.457 6.021-1.6 1.628-3.723 2.5-5.956 2.5h-5.249c-.41 0-.744.34-.744.757v4.09z"/>
                <path d="M13.5 7C11.569 7 10 8.345 10 10s1.569 3 3.5 3c1.93 0 3.5-1.345 3.5-3 .04-1.655-1.57-3-3.5-3zm0 4.62c-1.046 0-1.891-.723-1.891-1.62 0-.897.845-1.62 1.89-1.62 1.046 0 1.891.723 1.891 1.62.04.897-.845 1.62-1.89 1.62zM22.5 7C20.569 7 19 8.345 19 10s1.569 3 3.5 3 3.5-1.345 3.5-3-1.569-3-3.5-3zm0 4.62c-1.046 0-1.89-.723-1.89-1.62 0-.897.844-1.62 1.89-1.62 1.046 0 1.89.723 1.89 1.62 0 .897-.844 1.62-1.89 1.62zM32.52 13c1.92 0 3.48-1.345 3.48-3s-1.56-3-3.48-3S29 8.345 29 10s1.6 3 3.52 3zm0-4.62c1.04 0 1.88.723 1.88 1.62 0 .897-.84 1.62-1.88 1.62s-1.88-.723-1.88-1.62c-.04-.897.84-1.62 1.88-1.62z"/>
            </g>
        </g>
    </g>
</svg>
