<svg xmlns="http://www.w3.org/2000/svg" width="64" height="53" viewBox="0 0 64 53">
    <defs>
        <filter id="llmqbbdopa">
            <feColorMatrix in="SourceGraphic" values="0 0 0 0 0.270588 0 0 0 0 0.909804 0 0 0 0 0.874510 0 0 0 1.000000 0"/>
        </filter>
    </defs>
    <g fill="none" fill-rule="evenodd">
        <g filter="url(#llmqbbdopa)" transform="translate(-369 -1656)">
            <g fill-rule="nonzero">
                <path fill="#64EEFF" d="M47 18H52V19H47z" transform="translate(369 1656)"/>
                <path fill="#4BAFFC" d="M52.286 50h-5.588c-.399 0-.698.214-.698.5 0 .286.3.5.698.5h5.588c.4 0 .698-.214.698-.5.1-.214-.299-.5-.698-.5z" transform="translate(369 1656)"/>
                <path fill="#64EEFF" d="M61.554 14.906H55.29V2.533C55.29 1.072 54.116 0 52.746 0H6.752C5.284 0 4.11 1.17 4.11 2.533v31.274H0v2.923l2.74 3.605h33.762v10.23c0 1.363 1.076 2.435 2.446 2.435h22.606C62.924 53 64 51.928 64 50.564V17.342c0-1.364-1.076-2.436-2.446-2.436zm.978 2.436v2.923H37.97v-2.923c0-.585.49-.974.979-.974h22.606c.587 0 .978.39.978.974zM37.97 21.726h24.563v24.357H37.97V21.726zM6.752 1.461h45.994c.587 0 1.077.488 1.077 1.072V4.97H5.578V2.533c0-.584.49-1.072 1.174-1.072zm-1.174 4.97h48.245v8.475H38.948c-1.37 0-2.446 1.072-2.446 2.436v16.562H5.578V6.43zM3.425 38.872l-1.957-2.63v-.975h35.034v3.605H3.425zM61.554 51.54H38.948c-.587 0-.979-.488-.979-.975v-3.02h24.563v3.02c0 .585-.391.975-.978.975z" transform="translate(369 1656)"/>
                <path fill="#64EEFF" d="M49 13L50 13 50 13.7 49 13.7zM49 9L50 9 50 10 49 10zM35 9L36 9 36 10 35 10zM11 9L12 9 12 10 11 10zM46 9L47 9 47 10 46 10zM39 9L40 9 40 10 39 10zM42 9L43 9 43 10 42 10zM22 9L23 9 23 10 22 10zM25 9L26 9 26 10 25 10zM18 9L19 9 19 10 18 10zM15 9L16 9 16 10 15 10zM32 9L33 9 33 10 32 10zM29 9L30 9 30 10 29 10zM8 9L9 9 9 10 8 10zM8 13L9 13 9 14 8 14zM8 16L9 16 9 17 8 17zM8 20L9 20 9 21 8 21zM8 27L9 27 9 28 8 28zM8 24L9 24 9 25 8 25zM8 31L9 31 9 32 8 32zM24 31L25 31 25 32 24 32zM27 31L28 31 28 32 27 32zM21 31L22 31 22 32 21 32zM31 31L32 31 32 32 31 32zM14 31L15 31 15 32 14 32zM11 31H12V32H11zM17 31L18 31 18 32 17 32zM34 31L34.7 31 34.7 32 34 32zM54.614 33.415l-6.554-3.343c-.193-.096-.482-.096-.674 0-.193.095-.386.382-.386.573v6.686c0 .287.096.478.386.573.096.096.289.096.385.096.096 0 .193 0 .29-.096l6.553-3.343c.29-.095.386-.382.386-.668 0-.096-.096-.383-.386-.478zm-6.168 2.77v-4.298l4.24 2.197-4.24 2.101z" transform="translate(369 1656)"/>
                <path fill="#64EEFF" d="M49.5 25c-4.722 0-8.5 3.778-8.5 8.5 0 4.722 3.778 8.5 8.5 8.5 4.722 0 8.5-3.778 8.5-8.5 0-4.722-3.872-8.5-8.5-8.5zm0 15.489c-3.872 0-7.083-3.211-7.083-7.083 0-3.873 3.21-7.084 7.083-7.084 3.872 0 7.083 3.211 7.083 7.084 0 3.872-3.21 7.083-7.083 7.083z" transform="translate(369 1656)"/>
            </g>
        </g>
    </g>
</svg>
