<svg xmlns="http://www.w3.org/2000/svg" width="121" height="19" viewBox="0 0 121 19">
    <g fill="none" fill-rule="evenodd">
        <g fill="#FEFEFE">
            <g>
                <g>
                    <path d="M2.627 12.386c0 1.201.384 2.18 1.15 2.934.766.754 1.665 1.131 2.698 1.131 1.032 0 1.908-.38 2.628-1.143.72-.762 1.08-1.74 1.08-2.934 0-1.194-.36-2.192-1.08-2.993-.72-.802-1.603-1.202-2.651-1.202-1.048 0-1.948.4-2.698 1.202-.75.8-1.127 1.803-1.127 3.005zm-.868 4.607C.585 15.8 0 14.228 0 12.28s.6-3.504 1.806-4.667C3.01 6.45 4.446 5.869 6.11 5.869c1.667 0 3.007.707 4.025 2.121V1.108h2.628v17.488h-2.628V16.71c-.971 1.383-2.387 2.075-4.247 2.075-1.581 0-2.957-.597-4.13-1.792zM16.986 12.386c0 1.201.384 2.18 1.15 2.934.766.754 1.665 1.131 2.698 1.131 1.032 0 1.908-.38 2.627-1.143.72-.762 1.08-1.74 1.08-2.934 0-1.194-.36-2.192-1.08-2.993-.719-.802-1.603-1.202-2.65-1.202-1.049 0-1.948.4-2.698 1.202-.751.8-1.127 1.803-1.127 3.005m-.868 4.607c-1.174-1.194-1.759-2.765-1.759-4.713s.6-3.504 1.805-4.667c1.206-1.162 2.63-1.744 4.271-1.744 1.643 0 2.995.786 4.06 2.357V6.057h2.627v12.539h-2.628v-2.05c-.5.723-1.138 1.276-1.913 1.661-.774.385-1.552.578-2.333.578-1.581 0-2.957-.597-4.13-1.792M32.143 11.808v6.788h-2.626V6.058h2.626v2.286c.423-.77 1.006-1.375 1.749-1.815.743-.44 1.544-.66 2.405-.66 1.407 0 2.546.433 3.414 1.296.867.865 1.302 2.114 1.302 3.748v7.683h-2.628v-6.882c0-2.31-.954-3.464-2.863-3.464-.907 0-1.696.302-2.37.907-.672.605-1.009 1.489-1.009 2.651M45.892 18.596L43.265 18.596 43.265 1.108 45.892 1.108 45.892 11.384 50.961 6.058 54.339 6.058 49.6 11.031 54.691 18.596 51.5 18.596 47.793 13.105 45.892 15.037zM55.959 18.596h2.627V6.057h-2.627v12.539zm.163-15.037c-.329-.33-.493-.723-.493-1.177 0-.457.164-.85.493-1.18.328-.33.72-.495 1.174-.495.453 0 .845.166 1.172.495.33.33.493.723.493 1.18 0 .454-.164.848-.493 1.177-.327.33-.72.496-1.172.496-.454 0-.846-.166-1.174-.496zM61.46 18.184c-.4-.4-.598-.892-.598-1.473 0-.582.199-1.073.599-1.474.398-.4.887-.6 1.466-.6.577 0 1.067.2 1.467.6.397.401.598.892.598 1.474 0 .581-.2 1.072-.598 1.473-.4.4-.89.6-1.467.6-.58 0-1.068-.2-1.466-.6M72.805 18.785c-1.737 0-3.231-.594-4.482-1.78-1.252-1.186-1.877-2.738-1.877-4.655 0-1.917.652-3.476 1.959-4.678C69.71 6.47 71.302 5.87 73.18 5.87c1.877 0 3.464.652 4.763 1.956l-1.549 1.91c-1.08-.943-2.167-1.415-3.262-1.415-1.095 0-2.045.365-2.85 1.096-.806.731-1.209 1.673-1.209 2.828 0 1.156.4 2.133 1.197 2.935.798.801 1.779 1.202 2.944 1.202 1.166 0 2.265-.534 3.298-1.603l1.548 1.697c-1.517 1.54-3.27 2.31-5.255 2.31M82.763 15.285c.743.762 1.685 1.143 2.828 1.143 1.14 0 2.084-.38 2.827-1.143.743-.762 1.113-1.748 1.113-2.958 0-1.21-.37-2.196-1.113-2.958S86.73 8.226 85.59 8.226c-1.143 0-2.085.38-2.828 1.143-.743.762-1.115 1.748-1.115 2.958 0 1.21.372 2.196 1.115 2.958m7.52 1.626c-1.251 1.25-2.815 1.873-4.692 1.873-1.878 0-3.442-.624-4.693-1.873-1.252-1.25-1.876-2.777-1.876-4.584 0-1.807.624-3.335 1.876-4.584 1.251-1.249 2.815-1.873 4.693-1.873 1.877 0 3.44.624 4.692 1.873 1.251 1.25 1.877 2.777 1.877 4.584 0 1.807-.626 3.335-1.877 4.584M96.032 12.386c0 1.201.384 2.18 1.15 2.934.766.754 1.665 1.131 2.698 1.131 1.032 0 1.908-.38 2.628-1.143.719-.762 1.08-1.74 1.08-2.934 0-1.194-.361-2.192-1.08-2.993-.72-.802-1.603-1.202-2.651-1.202-1.049 0-1.948.4-2.698 1.202-.75.8-1.127 1.803-1.127 3.005m-.868 4.607c-1.174-1.194-1.759-2.765-1.759-4.713s.6-3.504 1.805-4.667c1.206-1.162 2.64-1.744 4.306-1.744 1.667 0 3.007.707 4.024 2.121V1.108h2.629v17.488h-2.629V16.71c-.97 1.383-2.386 2.075-4.246 2.075-1.581 0-2.957-.597-4.13-1.792M110.743 12.398c0 .204.008.353.023.447l6.923-2.993c-.533-1.037-1.479-1.555-2.84-1.555-1.033 0-1.974.361-2.827 1.084-.852.723-1.279 1.728-1.279 3.017m3.966-6.528c1.704 0 3.12.474 4.247 1.425 1.125.95 1.696 2.188 1.712 3.712l.023.047-9.103 3.842c.813 1.006 1.92 1.509 3.32 1.509s2.554-.55 3.46-1.65l1.55 1.72c-1.487 1.54-3.238 2.31-5.256 2.31-1.768 0-3.285-.59-4.553-1.768-1.267-1.178-1.9-2.734-1.9-4.667 0-1.335.33-2.51.986-3.523.657-1.013 1.47-1.76 2.44-2.24.97-.478 1.994-.717 3.074-.717" transform="translate(-582 -7882) translate(-115 7852) translate(697 30)"/>
                </g>
            </g>
        </g>
    </g>
</svg>
