<svg xmlns="http://www.w3.org/2000/svg" width="68" height="42" viewBox="0 0 68 42">
    <defs>
        <filter id="witnq56qta">
            <feColorMatrix in="SourceGraphic" values="0 0 0 0 0.270588 0 0 0 0 0.909804 0 0 0 0 0.874510 0 0 0 1.000000 0"/>
        </filter>
    </defs>
    <g fill="none" fill-rule="evenodd">
        <g filter="url(#witnq56qta)" transform="translate(-846 -1665)">
            <g fill="#64EEFF" fill-rule="nonzero">
                <g>
                    <path d="M11.484.042c-.212.072-.383.238-.486.436L.088 22.914c-.206.423-.042.939.392 1.144l6 2.888c.504.242 1.055.366 1.601.366.407 0 .815-.061 1.21-.2.923-.32 1.662-.976 2.087-1.85l8.478-17.426c.425-.876.47-1.86.155-2.783-.322-.917-.982-1.664-1.862-2.086l-6-2.877c-.206-.097-.446-.12-.664-.048zM56.332.55l-7.27 3.49c-.752.362-1.315.99-1.588 1.768-.273.779-.223 1.628.142 2.37l8.953 18.404c.534 1.105 1.639 1.757 2.798 1.757.456 0 .915-.102 1.352-.307L68 24.529 56.332.55zM12.16 1.999l5.23 2.511c.467.23.826.626.996 1.109.17.495.141 1.015-.084 1.473L9.824 24.506c-.23.465-.617.821-1.103.99-.491.17-1.02.13-1.494-.094l-5.23-2.511L12.16 1.999zm43.377.837L65.7 23.728l-5.728 2.759c-.686.332-1.527.042-1.861-.649L49.17 7.434c-.165-.332-.193-.699-.072-1.05.122-.35.378-.638.712-.8l5.727-2.748zM22.192 8.873c-.328 0-.63.187-.77.483l-8.55 17.579c-.098.205-.109.443-.038.66.073.217.24.392.439.495l4.34 2.063c.115.054.235.083.356.083-.015.151-.048.303-.048.46 0 1.769 1.452 3.219 3.237 3.219.358 0 .716-.068 1.044-.188.418 1.298 1.644 2.252 3.083 2.252.358 0 .698-.063 1.02-.177.406 1.316 1.637 2.287 3.095 2.287.449 0 .88-.102 1.268-.271.456 1.237 1.652 2.122 3.048 2.122.91 0 1.735-.387 2.324-.99.08.09.164.181.285.236l3.38 1.591c.455.23.948.342 1.446.342.358 0 .727-.054 1.08-.177.843-.29 1.514-.895 1.896-1.686.395-.797.446-1.69.155-2.523-.016-.048-.038-.093-.06-.141.861-.254 1.62-.864 2.05-1.733.42-.864.424-1.814.072-2.653.364-.109.721-.278 1.043-.507.358-.26.618-.581.83-.931l5.514-2.606c.206-.096.36-.271.439-.495.079-.211.061-.449-.037-.648l-7.613-15.61c-.134-.278-.408-.466-.724-.484l-13.672-.79c-.607-.037-1.18.096-1.732.295-.048-.054-.093-.117-.154-.153-2.064-1.364-7.444-1.403-8.051-1.403l.005-.001zm.522 1.697c1.524.037 4.297.223 5.858.778l-.581 1.132c-.032.061-.055.123-.072.189l-1.968 3.678c-.516 1.026-.607 2.168-.261 3.219.352 1.098 1.102 1.986 2.134 2.499 2.083 1.02 4.552.225 5.633-1.816l1.695-3.324 13.092 6.272c.771.368 1.1 1.35.735 2.122-.352.748-1.215 1.085-1.992.802-.006 0-.01-.006-.027-.011-.027-.01-.048-.016-.07-.027l-2.811-1.049c-.225-.079-.476-.073-.688.037-.219.11-.372.296-.44.519l-.07.224c-.067.217-.038.449.07.649.11.199.292.352.51.412l2.752.79c.716.41.987 1.309.604 2.075-.103.23-.25.416-.462.566-.462.332-1.035.395-1.66.13l-2.858-1.073c-.219-.085-.464-.074-.676.026-.213.097-.378.284-.45.507l-.062.19c-.072.216-.054.466.048.671.104.205.286.358.51.425l2.74.801.048.01c.764.412 1.076 1.333.7 2.1-.39.79-1.35 1.13-2.206.707l-2.918-1.097c-.224-.078-.475-.072-.687.038-.219.108-.372.3-.44.53l-.07.213c-.067.217-.038.449.07.648.11.2.292.352.51.413l2.846.825c.389.187.679.51.818.908.14.399.112.834-.083 1.226-.182.38-.5.663-.901.802s-.815.11-1.21-.083l-3.38-1.592c-.078-.037-.163-.047-.248-.06.079-.272.13-.565.13-.86 0-1.776-1.452-3.22-3.237-3.22-.443 0-.88.09-1.27.26-.454-1.237-1.65-2.122-3.047-2.122-.357 0-.698.062-1.02.177-.4-1.322-1.637-2.275-3.094-2.275-.358 0-.716.054-1.044.177-.413-1.298-1.638-2.252-3.083-2.252-1.056 0-1.984.524-2.573 1.308-.067-.06-.14-.128-.225-.164l-3.558-1.698 7.934-16.329.005-.003zm9.308 1.274l13.175.754 4.767 9.786c-.268-.284-.59-.527-.96-.708L35.152 15.04c-.419-.2-.926-.032-1.138.377l-2.088 4.067c-.637 1.202-2.1 1.665-3.332 1.061-.607-.301-1.056-.827-1.268-1.485-.207-.628-.138-1.324.165-1.922l2.052-3.831c.026-.027.037-.064.048-.095.006-.01.015-.01.026-.026.462-.875 1.412-1.398 2.408-1.344l-.004.003zm18.807 12.32l1.364 2.806-3.498 1.662c-.038-.283-.093-.56-.202-.825.869-.253 1.627-.864 2.052-1.733.291-.616.382-1.282.285-1.91zM21.16 29.186c.832 0 1.506.683 1.506 1.51 0 .114-.054.26-.107.447-.026.073-.037.146-.037.225-.067.047-.118.104-.166.176-.176.242-.567.649-1.198.649-.832 0-1.518-.67-1.518-1.497 0-.827.686-1.51 1.518-1.51h.002zm4.115 2.052c.832 0 1.518.682 1.518 1.509 0 .133-.037.284-.107.495-.016.06-.043.123-.048.177-.055.048-.106.105-.154.165-.176.253-.572.672-1.21.672-.838 0-1.518-.676-1.518-1.51 0-.12.055-.26.107-.447.027-.073.043-.146.048-.224.067-.048.118-.11.166-.177.176-.247.566-.66 1.197-.66h.001zm4.127 2.11c.838 0 1.518.682 1.518 1.51 0 .15-.043.313-.119.518-.004.016-.004.042-.01.06-.016.027-.038.055-.048.083-.262.52-.776.85-1.34.85-.832 0-1.518-.677-1.518-1.51 0-.127.043-.284.119-.495.015-.06.032-.117.037-.177.06-.048.123-.116.166-.177.175-.248.56-.66 1.197-.66l-.002-.002zm4.316 1.863c.838 0 1.506.67 1.506 1.497 0 .827-.68 1.51-1.518 1.51-.832 0-1.506-.683-1.506-1.51 0-.145.043-.301.119-.507.004-.016.004-.042.01-.06l.048-.083c.262-.519.776-.849 1.34-.849l.001.002z" transform="translate(846 1665)"/>
                </g>
            </g>
        </g>
    </g>
</svg>
