<svg xmlns="http://www.w3.org/2000/svg" width="48" height="48" viewBox="0 0 48 48">
    <defs>
        <filter id="kbimiarw8a">
            <feColorMatrix in="SourceGraphic" values="0 0 0 0 0.270588 0 0 0 0 0.909804 0 0 0 0 0.874510 0 0 0 1.000000 0"/>
        </filter>
        <filter id="mcyh7xmd0b">
            <feColorMatrix in="SourceGraphic" values="0 0 0 0 1.000000 0 0 0 0 0.890196 0 0 0 0 0.172549 0 0 0 1.000000 0"/>
        </filter>
    </defs>
    <g fill="none" fill-rule="evenodd">
        <g filter="url(#kbimiarw8a)" transform="translate(-859 -1968)">
            <g fill="#64EEFF" fill-rule="nonzero" filter="url(#mcyh7xmd0b)" transform="translate(860 1969)">
                <path d="M14.22 20.537l6.568 3.401c0 1.372 1.06 2.47 2.384 2.47 1.324 0 2.384-1.098 2.384-2.47 0-.987-.53-1.81-1.325-2.194V11.32c0-.604-.476-1.098-1.059-1.098s-1.06.494-1.06 1.098v10.424c-.105.055-.264.164-.37.22l-6.568-3.402c-.53-.275-1.166-.055-1.43.493-.265.55-.053 1.208.476 1.482zm8.952 3.127c.159 0 .265.11.265.274 0 .165-.106.275-.265.275-.159 0-.265-.11-.265-.275 0-.164.106-.274.265-.274z"/>
                <path d="M23 46c12.664 0 23-10.336 23-23S35.664 0 23 0 0 10.336 0 23s10.336 23 23 23zM3.518 21.918h-1.3c.542-10.824 9.363-19.483 20.24-19.753v1.353c0 .595.488 1.082 1.083 1.082s1.083-.487 1.083-1.082v-1.3c10.39.813 18.67 9.255 19.157 19.7h-1.299c-.595 0-1.082.487-1.082 1.082 0 .595.487 1.082 1.082 1.082h1.3c-.542 10.445-8.822 18.887-19.158 19.7v-1.3c0-.595-.488-1.082-1.083-1.082s-1.082.487-1.082 1.082v1.353c-10.878-.27-19.699-8.93-20.24-19.753h1.299c.595 0 1.082-.487 1.082-1.082 0-.595-.487-1.082-1.082-1.082z"/>
            </g>
        </g>
    </g>
</svg>
