<svg xmlns="http://www.w3.org/2000/svg" width="61" height="19" viewBox="0 0 61 19">
    <g fill="none" fill-rule="evenodd">
        <g fill="#45E8DF" fill-rule="nonzero">
            <g>
                <path d="M49.094 18.447c-8.525 0-16.169-5.659-18.594-7.643-.955.735-2.793 2.13-5.218 3.454-4.85 2.72-9.334 4.115-13.376 4.115C6.173 18.373 0 15.14 0 9.187 0 3.527 6.173 0 11.906 0 20.431 0 28.075 5.659 30.5 7.643c.955-.735 2.793-2.131 5.218-3.454C40.568 1.47 45.052.073 49.094.073 54.827.073 61 3.307 61 9.26c0 5.733-6.173 9.187-11.906 9.187zM32.411 9.334c2.646 2.058 9.48 6.761 16.683 6.761 4.557 0 9.48-2.72 9.48-6.761 0-4.41-4.85-6.762-9.48-6.762C42.186 2.5 35.13 7.276 32.411 9.334zM11.906 2.499c-4.557 0-9.48 2.72-9.48 6.761 0 4.41 4.85 6.762 9.48 6.762 6.908 0 13.964-4.777 16.683-6.835-2.646-1.911-9.48-6.688-16.683-6.688z" transform="translate(-131 -1674) translate(131 1674)"/>
            </g>
        </g>
    </g>
</svg>
